<svg xmlns="http://www.w3.org/2000/svg" width="69" height="69" viewBox="0 0 69 69"><defs><style>.a{fill:#e6e6e6;}.b{fill:#bfbfbf;}</style></defs><g transform="translate(-168 -273)"><circle class="a" cx="34.5" cy="34.5" r="34.5" transform="translate(168 273)"/><g transform="translate(183 280.923)"><path class="b" d="M66.375,309.333H36.786A4.929,4.929,0,0,0,32,314.392V333.71a4.929,4.929,0,0,0,4.786,5.059H66.375a4.929,4.929,0,0,0,4.786-5.059V314.392a4.929,4.929,0,0,0-4.786-5.059Zm-29.589,2.76H66.375a2.24,2.24,0,0,1,2.176,2.3V333.71a2.24,2.24,0,0,1-2.176,2.3H36.786a2.24,2.24,0,0,1-2.176-2.3V314.392a2.24,2.24,0,0,1,2.176-2.3Z" transform="translate(-32 -297.256)"/><path class="b" d="M187.413,437.333H161.305a1.344,1.344,0,0,0-1.305,1.38v5.519a1.344,1.344,0,0,0,1.305,1.38h26.108a1.344,1.344,0,0,0,1.305-1.38v-5.519A1.344,1.344,0,0,0,187.413,437.333Zm-1.305,2.759v2.76h-23.5v-2.76Z" transform="translate(-154.779 -419.737)"/><path class="b" d="M207.017,672a4.606,4.606,0,1,0,4.351,4.6A4.48,4.48,0,0,0,207.017,672Zm0,2.76a1.843,1.843,0,1,1-1.741,1.84A1.792,1.792,0,0,1,207.017,674.759Z" transform="translate(-195.704 -644.285)"/><path class="b" d="M599.509,770.3m-2.176,0a2.179,2.179,0,1,0,2.176-2.3,2.24,2.24,0,0,0-2.176,2.3Z" transform="translate(-574.272 -736.145)"/><path class="b" d="M748.842,770.3m-2.176,0a2.179,2.179,0,1,0,2.176-2.3A2.24,2.24,0,0,0,746.667,770.3Z" transform="translate(-717.513 -736.145)"/></g></g></svg>