<svg xmlns="http://www.w3.org/2000/svg" width="18.561" height="15.861" viewBox="0 0 18.561 15.861">
  <path id="收缩" d="M81.616,139.305H70.851a1.015,1.015,0,0,1,0-2.025H81.616a1.015,1.015,0,0,1,0,2.025Zm0-4.725H70.851a1.015,1.015,0,0,1,0-2.025H81.616a1.015,1.015,0,0,1,0,2.025Zm-.067-4.556H65.012a1.012,1.012,0,0,1,0-2.025H81.549a1.012,1.012,0,0,1,0,2.025Zm-12.824,9.28L64,135.931l4.725-3.375Zm-3.712,2.531H81.549a1.012,1.012,0,0,1,0,2.025H65.012a1.012,1.012,0,0,1,0-2.025Z" transform="translate(-64 -128)"/>
</svg>
