<svg xmlns="http://www.w3.org/2000/svg" width="18.561" height="15.861" viewBox="0 0 18.561 15.861">
  <path id="收缩" d="M64.945,139.305H75.71a1.015,1.015,0,0,0,0-2.025H64.945a1.015,1.015,0,0,0,0,2.025Zm0-4.725H75.71a1.015,1.015,0,0,0,0-2.025H64.945a1.015,1.015,0,0,0,0,2.025Zm.067-4.556H81.549a1.012,1.012,0,0,0,0-2.025H65.012a1.012,1.012,0,0,0,0,2.025Zm12.824,9.281,4.725-3.375-4.725-3.375Zm3.712,2.531H65.012a1.012,1.012,0,0,0,0,2.025H81.549a1.012,1.012,0,0,0,0-2.025Z" transform="translate(-64 -128)"/>
</svg>
