<svg xmlns="http://www.w3.org/2000/svg" width="69" height="69" viewBox="0 0 69 69"><defs><style>.a{fill:#e6e6e6;}.b{fill:#bfbfbf;}</style></defs><g transform="translate(-608 -273)"><circle class="a" cx="34.5" cy="34.5" r="34.5" transform="translate(608 273)"/><g transform="translate(488.333 233.73)"><path class="b" d="M169.276,53.333H140.038a1.353,1.353,0,0,0-1.371,1.335V90.259a1.353,1.353,0,0,0,1.371,1.335h29.238a1.353,1.353,0,0,0,1.371-1.335V54.668A1.353,1.353,0,0,0,169.276,53.333ZM167.905,56V88.925h-26.5V56Z" transform="translate(0 0.936)"/><path class="b" d="M320,373.333h16.446v2.741H320Z" transform="translate(-173.567 -305.872)"/><path class="b" d="M480,213.333h2.741v16.446H480Z" transform="translate(-326.714 -152.725)"/><path class="b" d="M297.594,181.333a9.594,9.594,0,1,0,9.594,9.594A9.594,9.594,0,0,0,297.594,181.333Zm0,2.741a6.853,6.853,0,1,1-6.853,6.853A6.853,6.853,0,0,1,297.594,184.074Z" transform="translate(-142.937 -122.095)"/><path class="b" d="M320,682.667h16.446v2.741H320Zm3.655,4.568h9.137v2.741h-9.137Z" transform="translate(-173.567 -601.958)"/></g></g></svg>