<svg xmlns="http://www.w3.org/2000/svg" width="69" height="69" viewBox="0 0 69 69"><defs><style>.a{fill:#4282e8;}.b{fill:#fff;}</style></defs><g transform="translate(-1047 -178)"><path class="a" d="M34.5,0A34.5,34.5,0,1,1,0,34.5,34.5,34.5,0,0,1,34.5,0Z" transform="translate(1047 178)"/><g transform="translate(0.598)"><path class="b" d="M104.91,32H75.815a1.148,1.148,0,0,0-1.148,1.148V65.306a1.148,1.148,0,0,0,1.148,1.148H104.91a1.148,1.148,0,0,0,1.148-1.148V33.148A1.148,1.148,0,0,0,104.91,32Zm-1.148,2.3v29.86h-26.8V34.3Z" transform="translate(990.735 163)"/><path class="b" d="M388.594,217.927m-4.594,0a4.594,4.594,0,1,0,4.594-4.594A4.594,4.594,0,0,0,384,217.927Z" transform="translate(692.504 -12.874)"/><path class="b" d="M259.141,501.333a9.573,9.573,0,0,1,9.367,7.6l.046.233-2.259.415a7.276,7.276,0,0,0-14.267-.2l-.041.2-2.259-.415A9.573,9.573,0,0,1,259.141,501.333Z" transform="translate(821.957 -290.538)"/><path class="b" d="M170.667,789.333h24.5v2.3h-24.5Z" transform="translate(898.181 -568.201)"/></g></g></svg>