<svg xmlns="http://www.w3.org/2000/svg" width="19.699" height="19.116" viewBox="0 0 19.699 19.116">
  <g id="组_339" data-name="组 339" transform="translate(838.574 -8720.634)">
    <path id="云服务器_云上传" data-name="云服务器,云上传" d="M28.536,20.466a2.96,2.96,0,0,1-2.922,2.993H20.741a2.636,2.636,0,0,1-2.6-2.52,2.561,2.561,0,0,1,1.96-2.411A2.885,2.885,0,0,1,23.015,15.9a2.932,2.932,0,0,1,2.621,1.584A3.03,3.03,0,0,1,28.536,20.466Zm-12.509-.655-2.54,2.64a.085.085,0,0,1-.144-.036L13.05,21.4a.085.085,0,0,0-.127-.049,6.9,6.9,0,0,0-1.273.975,7.178,7.178,0,0,0-1.5,2.112.687.687,0,0,1-.623.395.7.7,0,0,1-.292-.064.688.688,0,0,1-.331-.914,8.416,8.416,0,0,1,3.664-3.881.085.085,0,0,0,.043-.1l-.324-1.121a.086.086,0,0,1,.1-.107l3.557.88A.173.173,0,0,1,16.027,19.811Zm11.519,5.876a8.562,8.562,0,0,1-1.38,2.763,8.408,8.408,0,0,1-1.64,1.638.086.086,0,0,0-.026.105l.492,1.056a.087.087,0,0,1-.086.122l-3.649-.32a.173.173,0,0,1-.127-.27l2.1-3a.086.086,0,0,1,.148.013l.447.96a.086.086,0,0,0,.133.03,7.069,7.069,0,0,0,1.108-1.159A7.193,7.193,0,0,0,26.226,25.3a.687.687,0,0,1,1.32.382Z" transform="translate(-847.411 8704.734)"/>
    <path id="排除_1" data-name="排除 1" d="M6.288,8.745H1a1,1,0,0,1-1-1V1A1,1,0,0,1,1,0H6.288a1,1,0,0,1,1,1V7.745A1,1,0,0,1,6.288,8.745ZM1.094,6.559a.364.364,0,1,0,0,.728H5.466a.364.364,0,1,0,0-.728Zm0-2.187a.365.365,0,0,0,0,.729H4.738a.365.365,0,0,0,0-.729Zm0-2.186a.364.364,0,1,0,0,.729H4.738a.365.365,0,0,0,0-.729Z" transform="translate(-836.012 8731.005)"/>
  </g>
</svg>
