<svg xmlns="http://www.w3.org/2000/svg" width="69" height="69" viewBox="0 0 69 69"><defs><style>.a{fill:#fff;}.b{fill:#4282e8;}</style></defs><g transform="translate(-1487 -84)"><circle class="a" cx="34.5" cy="34.5" r="34.5" transform="translate(1487 84)"/><g transform="translate(1503 100)"><path class="b" d="M0,298.293H30.264v2.815H0ZM4.927,294H15.343a.422.422,0,0,1,.422.422v1.971a.422.422,0,0,1-.422.422H4.927a.422.422,0,0,1-.422-.422v-1.971A.422.422,0,0,1,4.927,294ZM17.6,294h3.1a.422.422,0,0,1,.422.422v1.971a.422.422,0,0,1-.422.422H17.6a.422.422,0,0,1-.422-.422v-1.971A.422.422,0,0,1,17.6,294Z" transform="translate(0 -283.654)"/><path class="b" d="M24.633,33.22A2.818,2.818,0,0,0,27.449,30.4V27.449H30.4a2.818,2.818,0,0,0,2.815-2.815v-19A2.818,2.818,0,0,0,30.4,2.815h-19A2.818,2.818,0,0,0,8.587,5.63V8.587H5.63A2.818,2.818,0,0,0,2.815,11.4v19A2.818,2.818,0,0,0,5.63,33.22h19m0,2.815h-19A5.63,5.63,0,0,1,0,30.4v-19a5.63,5.63,0,0,1,5.63-5.63h.141V5.63A5.63,5.63,0,0,1,11.4,0h19a5.63,5.63,0,0,1,5.63,5.63v19a5.63,5.63,0,0,1-5.63,5.63h-.141V30.4A5.63,5.63,0,0,1,24.633,36.035Z"/><path class="b" d="M5.63,166.815a2.818,2.818,0,0,0-2.815,2.815v19a2.818,2.818,0,0,0,2.815,2.815h19a2.818,2.818,0,0,0,2.815-2.815v-19a2.818,2.818,0,0,0-2.815-2.815h-19m0-2.815h19a5.63,5.63,0,0,1,5.63,5.63v19a5.63,5.63,0,0,1-5.63,5.63h-19A5.63,5.63,0,0,1,0,188.633v-19A5.63,5.63,0,0,1,5.63,164Z" transform="translate(0 -158.229)"/></g></g></svg>