<svg xmlns="http://www.w3.org/2000/svg" width="69" height="69" viewBox="0 0 69 69"><defs><style>.a{fill:#e6e6e6;}.b{fill:#bfbfbf;}</style></defs><g transform="translate(-168 -652)"><circle class="a" cx="34.5" cy="34.5" r="34.5" transform="translate(168 652)"/><g transform="translate(152 636.006)"><path class="b" d="M68.2,309.333H32v25.745H68.2Zm-2.414,2.414v20.918H34.414V311.747Z" transform="translate(0 -266.88)"/><path class="b" d="M163.358,32.264a1.207,1.207,0,0,1,1.424-.072l.1.072,12.873,10.459L176.23,44.6l-12.111-9.841L152.007,44.6l-1.522-1.873,12.873-10.459Z" transform="translate(-114.017 0)"/><path class="b" d="M432.446,501.959l-4.378,7.662a1.207,1.207,0,0,0-.012,1.176l1.965,3.6a1.207,1.207,0,0,0,1.06.629h8.85a1.207,1.207,0,0,0,1.048-1.805l-6.436-11.263a1.207,1.207,0,0,0-2.095,0Zm1.047,3.031,4.357,7.625H431.8l-1.3-2.381,3-5.243Z" transform="translate(-380.978 -451.657)"/><path class="b" d="M239.642,565.957l-4.827,8.85a1.207,1.207,0,0,0,1.06,1.784h9.654a1.207,1.207,0,0,0,1.06-1.784l-4.827-8.85A1.207,1.207,0,0,0,239.642,565.957Zm1.06,3.1,2.794,5.123h-5.589l2.795-5.123Z" transform="translate(-195.024 -513.221)"/><path class="b" d="M215.747,450.414m-2.414,0A2.414,2.414,0,1,0,215.747,448,2.414,2.414,0,0,0,213.333,450.414Z" transform="translate(-174.494 -400.318)"/></g></g></svg>