<svg xmlns="http://www.w3.org/2000/svg" width="23" height="22" viewBox="0 0 23 22"><defs><style>.a{fill:#dcdcdc;}.b,.d{fill:none;}.b{stroke:#dcdcdc;stroke-linecap:round;stroke-width:0.3px;stroke-dasharray:0.5 0.5;}.c{stroke:none;}</style></defs><g transform="translate(-826 -320)"><path class="a" d="M20.138,38H3.945A1.5,1.5,0,0,0,2.4,39.485V54.363a1.553,1.553,0,0,0,1.545,1.549H20.267a1.5,1.5,0,0,0,1.481-1.549V39.485A1.555,1.555,0,0,0,20.138,38ZM8.631,40.2A2.369,2.369,0,1,1,6.26,42.572,2.37,2.37,0,0,1,8.631,40.2ZM4.995,53.7a.729.729,0,0,1-.553-1.2L7.79,47.443a.729.729,0,0,1,.989-.11l2.955,2.2,5.3-6.019c.25-.314,1.58-1.8,2.36-.117,0,0,0,2.223,0,4.5V53.7C19.385,53.689,5,53.7,4.995,53.7Z" transform="translate(825.426 284.044)"/><g class="b" transform="translate(826 320)"><rect class="c" width="23" height="22" rx="2"/><rect class="d" x="0.15" y="0.15" width="22.7" height="21.7" rx="1.85"/></g></g></svg>