<svg xmlns="http://www.w3.org/2000/svg" width="69" height="69" viewBox="0 0 69 69"><defs><style>.a{fill:#fff;}.b{fill:#4282e8;}</style></defs><g transform="translate(-608 -448)"><circle class="a" cx="34.5" cy="34.5" r="34.5" transform="translate(608 448)"/><g transform="translate(592 371.06)"><path class="b" d="M330.667,128h2.45v22.047h-2.45Z" transform="translate(-287.235 -30.833)"/><path class="b" d="M629.333,320h2.45v22.047h-2.45Z" transform="translate(-574.47 -215.484)"/><path class="b" d="M66.858,96.137l-10.77,6.923-10.77-6.923a1.225,1.225,0,0,0-1.324,0l-11.432,7.349A1.225,1.225,0,0,0,32,104.516v22.047l0,.106a1.225,1.225,0,0,0,1.883.924l10.77-6.924,10.769,6.924a1.225,1.225,0,0,0,1.324,0l11.432-7.349a1.225,1.225,0,0,0,.563-1.03V97.167a1.225,1.225,0,0,0-1.887-1.03Zm-22.2,2.486,10.769,6.924.113.065a1.225,1.225,0,0,0,1.212-.065L66.3,99.411v19.133l-10.207,6.562-10.77-6.923-.113-.064a1.225,1.225,0,0,0-1.212.065l-9.545,6.134V105.184Z" transform="translate(0)"/></g></g></svg>