<svg xmlns="http://www.w3.org/2000/svg" width="69" height="69" viewBox="0 0 69 69"><defs><style>.a{fill:#fff;}.b{fill:#4282e8;}</style></defs><g transform="translate(-1046 -448)"><path class="a" d="M34.5,0A34.5,34.5,0,1,1,0,34.5,34.5,34.5,0,0,1,34.5,0Z" transform="translate(1046 448)"/><g transform="translate(1040.667 422.333)"><path class="b" d="M23.333,42.667m1.158,0H55.6a1.023,1.023,0,0,1,1.158,1.158h0A1.023,1.023,0,0,1,55.6,44.982H24.491a1.023,1.023,0,0,1-1.158-1.158h0A1.023,1.023,0,0,1,24.491,42.667Z" transform="translate(0 0)"/><path class="b" d="M192,640m1.158,0h21.611a1.023,1.023,0,0,1,1.158,1.158h0a1.023,1.023,0,0,1-1.158,1.158H193.158A1.023,1.023,0,0,1,192,641.158h0A1.023,1.023,0,0,1,193.158,640Z" transform="translate(-164.576 -575.722)"/><path class="b" d="M874.667,821.333m1.158,0h2.316a1.023,1.023,0,0,1,1.158,1.158h0a1.023,1.023,0,0,1-1.158,1.158h-2.316a1.023,1.023,0,0,1-1.158-1.158h0A1.023,1.023,0,0,1,875.825,821.333Z" transform="translate(-822.544 -750.495)"/><path class="b" d="M450.538,73.69m.847.79h0a1.023,1.023,0,0,1,.057,1.636l-5.264,5.645a1.023,1.023,0,0,1-1.636.057h0a1.023,1.023,0,0,1-.057-1.636l5.264-5.645A1.023,1.023,0,0,1,451.384,74.479Z" transform="translate(-407.558 -29.901)"/><path class="b" d="M155.261,286.734v2.315h-5.4v-2.315Zm3.859-20.068A7.332,7.332,0,0,1,166.453,274v13.893a1.158,1.158,0,0,1-1.158,1.158h-3.087v-2.315h1.93V274a5.017,5.017,0,0,0-4.837-5.014l-.18,0H146A5.017,5.017,0,0,0,140.982,274v12.735h1.93v2.315h-3.087A1.158,1.158,0,0,1,138.672,288l-.005-.111V274A7.332,7.332,0,0,1,146,266.666Z" transform="translate(-113.172 -215.895)"/><path class="b" d="M228.631,736a4.631,4.631,0,1,0,4.631,4.631A4.631,4.631,0,0,0,228.631,736Zm0,2.315a2.315,2.315,0,1,1-2.316,2.315A2.315,2.315,0,0,1,228.631,738.315ZM240.98,736a4.631,4.631,0,1,0,4.631,4.631A4.631,4.631,0,0,0,240.98,736Zm0,2.315a2.315,2.315,0,1,1-2.315,2.315A2.315,2.315,0,0,1,240.98,738.315Z" transform="translate(-195.418 -668.249)"/><path class="b" d="M284.032,416h-6.175a1.158,1.158,0,0,0-1.158,1.158v3.859a1.158,1.158,0,0,0,1.158,1.158h6.175a1.158,1.158,0,0,0,1.158-1.158v-3.859A1.158,1.158,0,0,0,284.032,416Zm-1.158,2.315v1.544h-3.859v-1.544ZM274,416h-6.175a1.158,1.158,0,0,0-1.158,1.158v3.859a1.158,1.158,0,0,0,1.158,1.158H274a1.158,1.158,0,0,0,1.158-1.158v-3.859A1.158,1.158,0,0,0,274,416Zm-1.158,2.315v1.544h-3.859v-1.544Z" transform="translate(-236.54 -359.826)"/></g></g></svg>