<svg xmlns="http://www.w3.org/2000/svg" width="69" height="69" viewBox="0 0 69 69"><defs><style>.a{fill:#e6e6e6;}.b{fill:#bfbfbf;}</style></defs><g transform="translate(-1486 -652)"><circle class="a" cx="34.5" cy="34.5" r="34.5" transform="translate(1486 652)"/><g transform="translate(1446.667 612.667)"><path class="b" d="M104.19,117.388A1.414,1.414,0,0,1,105.6,118.8v2.828a1.414,1.414,0,0,1-2.828,0V118.8A1.414,1.414,0,0,1,104.19,117.388Zm17.442-14.613a1.414,1.414,0,0,1,0,2.828H118.8a1.414,1.414,0,0,1,0-2.828Zm-32.055,0a1.414,1.414,0,1,1,0,2.828H86.748a1.414,1.414,0,0,1,0-2.828ZM104.19,85.333a1.414,1.414,0,0,1,1.414,1.414v2.828a1.414,1.414,0,0,1-2.828,0V86.747A1.414,1.414,0,0,1,104.19,85.333Z" transform="translate(-30.586 -30.586)"/><path class="b" d="M73.6,53.333A20.27,20.27,0,1,0,93.873,73.6,20.27,20.27,0,0,0,73.6,53.333Zm0,2.828A17.442,17.442,0,1,1,56.162,73.6,17.442,17.442,0,0,1,73.6,56.162Z" transform="translate(0 0)"/><path class="b" d="M317.34,299.244a.984.984,0,0,1,.075,1.014l-6.458,11.768a.878.878,0,0,1-.387.365l-10.2,5.024a1.237,1.237,0,0,1-1.525-.475.984.984,0,0,1-.075-1.014l6.458-11.768a.878.878,0,0,1,.387-.365l10.2-5.024A1.236,1.236,0,0,1,317.34,299.244Zm-10.659,7.192-4.912,7.942,7.5-3.79-2.589-4.152Z" transform="translate(-234.492 -234.489)"/></g></g></svg>