<svg xmlns="http://www.w3.org/2000/svg" width="32.539" height="32.539" viewBox="0 0 32.539 32.539">
  <path id="减去_13" data-name="减去 13" d="M16.27,32.539A16.27,16.27,0,0,1,4.765,4.765,16.27,16.27,0,0,1,27.774,27.774,16.163,16.163,0,0,1,16.27,32.539Zm-.853-13.665h1.7v5.937a.845.845,0,0,0,.845.848h4.309A1.638,1.638,0,0,0,23.9,24.2V16.33a.848.848,0,1,0-1.7,0v7.633H18.809V18.642a1.517,1.517,0,0,0-1.414-1.464H15.134a1.517,1.517,0,0,0-1.414,1.464v5.321H10.328V16.33a.848.848,0,1,0-1.7,0V24.2a1.571,1.571,0,0,0,1.527,1.454h4.41a.849.849,0,0,0,.849-.848V18.875ZM16.265,6.99a2,2,0,0,0-1.181.372L7.306,13.087a.847.847,0,0,0-.179,1.185.851.851,0,0,0,.684.345.84.84,0,0,0,.5-.165l7.777-5.724a.313.313,0,0,1,.174-.042.32.32,0,0,1,.179.044l7.8,5.735a.848.848,0,0,0,1.168-.194A.853.853,0,0,0,25.25,13.1l-7.8-5.737A2.008,2.008,0,0,0,16.265,6.99Z"/>
</svg>
