<svg xmlns="http://www.w3.org/2000/svg" width="69" height="69" viewBox="0 0 69 69"><defs><style>.a{fill:#fff;}.b{fill:#4282e8;}</style></defs><g transform="translate(-168 -828)"><circle class="a" cx="34.5" cy="34.5" r="34.5" transform="translate(168 828)"/><g transform="translate(132.464 810.176)"><path class="b" d="M522.667,213.355m1.325,0h0a1.171,1.171,0,0,1,1.325,1.325v7.068a1.171,1.171,0,0,1-1.325,1.325h0a1.171,1.171,0,0,1-1.325-1.325V214.68A1.171,1.171,0,0,1,523.992,213.355Z" transform="translate(-452.23 -172.663)"/><path class="b" d="M84.651,33.571m.4,1.322h0a1.274,1.274,0,0,1-.757,1.777L51.19,49.714q-1.155.455-1.552-.867h0a1.274,1.274,0,0,1,.757-1.777L83.5,34.026Q84.651,33.571,85.049,34.893Z" transform="translate(3 -0.747)"/><path class="b" d="M243,416h-10.6A8.393,8.393,0,0,0,224,424.393v6.185a8.393,8.393,0,0,0,8.393,8.393H243a8.393,8.393,0,0,0,8.393-8.393v-6.185A8.393,8.393,0,0,0,243,416Zm-10.6,2.651H243a5.743,5.743,0,0,1,5.743,5.743v6.185A5.743,5.743,0,0,1,243,436.321h-10.6a5.743,5.743,0,0,1-5.743-5.743v-6.185a5.743,5.743,0,0,1,5.743-5.743Z" transform="translate(-165.932 -366.916)"/><path class="b" d="M341.333,704H359v.884a5.3,5.3,0,0,1-5.3,5.3h-7.068a5.3,5.3,0,0,1-5.3-5.3Z" transform="translate(-278.406 -642.988)"/></g></g></svg>