<svg xmlns="http://www.w3.org/2000/svg" width="69" height="69" viewBox="0 0 69 69"><defs><style>.a{fill:#e6e6e6;}.b{fill:#bfbfbf;}</style></defs><g transform="translate(-608 -1021)"><circle class="a" cx="34.5" cy="34.5" r="34.5" transform="translate(608 1021)"/><g transform="translate(589 859.667)"><path class="b" d="M64,320m1.4,0h36.422a1.238,1.238,0,0,1,1.4,1.4h0a1.238,1.238,0,0,1-1.4,1.4H65.4a1.238,1.238,0,0,1-1.4-1.4h0A1.238,1.238,0,0,1,65.4,320Z" transform="translate(-30.599 -132.597)"/><path class="b" d="M64,416m1.4,0h36.422a1.238,1.238,0,0,1,1.4,1.4h0a1.238,1.238,0,0,1-1.4,1.4H65.4a1.238,1.238,0,0,1-1.4-1.4h0A1.238,1.238,0,0,1,65.4,416Z" transform="translate(-30.599 -224.394)"/><path class="b" d="M149.333,640m1.4,0H158.2a1.238,1.238,0,0,1,1.4,1.4h0a1.238,1.238,0,0,1-1.4,1.4h-7.471a1.238,1.238,0,0,1-1.4-1.4h0A1.238,1.238,0,0,1,150.734,640Z" transform="translate(-112.197 -438.588)"/><path class="b" d="M643.284,554.667a3.248,3.248,0,0,1,1.868.586,3.269,3.269,0,0,0,0,5.365,3.269,3.269,0,1,1-1.868-5.952Zm3.735,0a3.252,3.252,0,0,0-1.868.586,3.269,3.269,0,0,1,0,5.365,3.269,3.269,0,1,0,1.868-5.952Z" transform="translate(-581.4 -356.991)"/><path class="b" d="M70.756,181.333H35.269A3.269,3.269,0,0,0,32,184.6v22.413a3.269,3.269,0,0,0,3.269,3.269H70.756a3.269,3.269,0,0,0,3.269-3.269V184.6a3.269,3.269,0,0,0-3.269-3.269Zm-35.488,2.8H70.756a.467.467,0,0,1,.467.467v22.413a.467.467,0,0,1-.467.467H35.269a.467.467,0,0,1-.467-.467V184.6a.467.467,0,0,1,.467-.467Z" transform="translate(0 0)"/></g></g></svg>