<svg xmlns="http://www.w3.org/2000/svg" width="69" height="69" viewBox="0 0 69 69"><defs><style>.a{fill:#e6e6e6;}.b{fill:#bfbfbf;}</style></defs><g transform="translate(-1047 -1021)"><circle class="a" cx="34.5" cy="34.5" r="34.5" transform="translate(1047 1021)"/><g transform="translate(1032 1006)"><path class="b" d="M322.417,32a1.982,1.982,0,0,1,1.978,1.853l0,.13v3.965h-2.379V34.379H311.713v3.568h-2.379V33.982A1.982,1.982,0,0,1,311.187,32l.13,0h11.1Z" transform="translate(-267.026)"/><path class="b" d="M203.932,160a1.982,1.982,0,0,1,1.978,1.853l0,.13v11.894h-2.379v-11.5H183.713v11.5h-2.379V161.982A1.982,1.982,0,0,1,183.187,160l.13,0h20.616Z" transform="translate(-143.784 -123.243)"/><path class="b" d="M288,277.333h2.379v2.379H288Zm4.757,0h2.379v2.379h-2.379Zm4.758,0h2.379v2.379h-2.379Zm4.757,0h2.379v2.379h-2.379Z" transform="translate(-246.485 -236.215)"/><path class="b" d="M72.09,330.826l-5.6-12.4a1.189,1.189,0,0,1,.291-1.376l.087-.07L82.21,305.662a1.189,1.189,0,0,1,1.313-.066l.092.06L98.7,316.614a1.189,1.189,0,0,1,.418,1.372l-.044.105L93.049,330.63,90.9,329.6,96.5,317.956l-13.575-9.863L69.053,318.322l5.2,11.525-2.168.978Z" transform="translate(-33.107 -263.267)"/><path class="b" d="M480,341.333m1.189,0h0a1.051,1.051,0,0,1,1.189,1.189v11.894a1.051,1.051,0,0,1-1.189,1.189h0A1.051,1.051,0,0,1,480,354.416V342.522A1.051,1.051,0,0,1,481.189,341.333Z" transform="translate(-431.349 -297.836)"/><path class="b" d="M33.189,842.667a4.466,4.466,0,0,1,2.152.637c.182.1.363.2.576.332l1.268.79a7.836,7.836,0,0,0,4.329,1.412,4.553,4.553,0,0,0,3.241-1.191l.2-.151a6.952,6.952,0,0,1,4.884-1.829,6.759,6.759,0,0,1,4.659,1.66l.224.169a4.752,4.752,0,0,0,3.442,1.342,7.343,7.343,0,0,0,4-1.243l.274-.166c.04-.024,1.167-.739,1.491-.928a6.246,6.246,0,0,1,1.656-.722,3.838,3.838,0,0,1,.676-.106l.225-.007h1.189v2.379H66.489a1.365,1.365,0,0,0-.327.044,4.122,4.122,0,0,0-1.032.468l-.333.2c-.427.265-1.053.661-1.108.7a9.854,9.854,0,0,1-5.523,1.763,6.761,6.761,0,0,1-4.658-1.66l-.426-.321a5.007,5.007,0,0,0-6.483,0l-.2.151a6.953,6.953,0,0,1-4.884,1.829,10.078,10.078,0,0,1-5.566-1.76l-1.656-1c-.563-.333-.72-.4-.876-.411l-.228,0H32v-2.379Z" transform="translate(0 -780.536)"/></g></g></svg>