<svg xmlns="http://www.w3.org/2000/svg" width="69" height="69" viewBox="0 0 69 69"><defs><style>.a{fill:#4282e8;}.b{fill:#fff;}</style></defs><g transform="translate(-1487 -916)"><circle class="a" cx="34.5" cy="34.5" r="34.5" transform="translate(1487 916)"/><g transform="translate(1423.555 831.431)"><path class="b" d="M95.03,102.846l-2.278,4.615a9.631,9.631,0,0,1-7.252,5.269l-5.093.74a2.293,2.293,0,0,0-1.27,3.911l3.685,3.592a9.631,9.631,0,0,1,2.77,8.525l-.87,5.072a2.293,2.293,0,0,0,3.327,2.417l4.555-2.394a9.631,9.631,0,0,1,8.963,0l4.555,2.394a2.293,2.293,0,0,0,3.327-2.417l-.87-5.072a9.631,9.631,0,0,1,2.77-8.525l3.685-3.591a2.293,2.293,0,0,0-1.27-3.911l-5.093-.74a9.631,9.631,0,0,1-7.252-5.269l-2.278-4.614a2.293,2.293,0,0,0-4.113,0Zm2.056,2.052,1.867,3.782.15.294a12.383,12.383,0,0,0,9.174,6.48l4.173.605L109.43,119l-.239.24a12.383,12.383,0,0,0-3.322,10.72l.713,4.155-3.732-1.961-.32-.162a12.383,12.383,0,0,0-11.2.162l-3.733,1.961.714-4.155.052-.335A12.383,12.383,0,0,0,84.743,119l-3.02-2.944,4.174-.605a12.383,12.383,0,0,0,9.323-6.774l1.867-3.783Z" transform="translate(0 0)"/><path class="b" d="M480,298.667m1.376,0h0a1.216,1.216,0,0,1,1.376,1.376v2.752a1.216,1.216,0,0,1-1.376,1.376h0A1.216,1.216,0,0,1,480,302.795v-2.752A1.216,1.216,0,0,1,481.376,298.667Z" transform="translate(-384.29 -188.624)"/><path class="b" d="M636.234,445.128m.425,1.309h0a1.216,1.216,0,0,1-.883,1.734l-2.617.85a1.216,1.216,0,0,1-1.734-.883h0a1.216,1.216,0,0,1,.883-1.734l2.617-.85A1.216,1.216,0,0,1,636.659,446.437Z" transform="translate(-529.104 -328.787)"/><path class="b" d="M577.233,654.287m-1.113.809h0a1.216,1.216,0,0,1-1.922-.3l-1.617-2.226a1.216,1.216,0,0,1,.3-1.922h0a1.216,1.216,0,0,1,1.922.3l1.617,2.226A1.216,1.216,0,0,1,576.12,655.1Z" transform="translate(-472.564 -525.14)"/><path class="b" d="M348.292,655.9m-1.113-.809h0a1.216,1.216,0,0,1-.3-1.922l1.617-2.226a1.216,1.216,0,0,1,1.922-.3h0a1.216,1.216,0,0,1,.3,1.922l-1.617,2.226A1.216,1.216,0,0,1,347.179,655.1Z" transform="translate(-256.562 -525.14)"/><path class="b" d="M258.63,454.887m.425-1.309h0a1.216,1.216,0,0,1,1.734-.883l2.617.85a1.216,1.216,0,0,1,.883,1.734h0a1.216,1.216,0,0,1-1.734.883l-2.617-.85A1.216,1.216,0,0,1,259.055,453.579Z" transform="translate(-172.438 -335.929)"/><path class="b" d="M414.922,454.634l-2.7,1.663.748-3.077-2.414-2.05,3.158-.238,1.2-2.931,1.2,2.93,3.158.238-2.414,2.051.748,3.077Z" transform="translate(-317.835 -331.536)"/></g></g></svg>