<svg xmlns="http://www.w3.org/2000/svg" width="13.807" height="18.585" viewBox="0 0 13.807 18.585"><defs><style>.a{fill:#e66d6d;}.b{fill:rgba(214,85,85,0.5);}</style></defs><g transform="translate(-243.414 -135.435)"><path class="a" d="M149.114,18.1a4.026,4.026,0,0,1,2.907,1.256,4.386,4.386,0,0,1,1.2,3.033v5.09a1.933,1.933,0,0,0,.342,1.106l.649.953H144.011l.649-.953A1.933,1.933,0,0,0,145,27.477v-5.09a4.385,4.385,0,0,1,1.2-3.033A4.026,4.026,0,0,1,149.114,18.1Zm0-1.429a5.6,5.6,0,0,0-5.482,5.719v5.089a.491.491,0,0,1-.087.276l-1.165,1.706a.988.988,0,0,0-.068.99.911.911,0,0,0,.812.516H155.1a.911.911,0,0,0,.812-.516.988.988,0,0,0-.068-.99l-1.165-1.706a.49.49,0,0,1-.087-.276v-5.09a5.6,5.6,0,0,0-5.483-5.718Zm.457-.476h-.913a.716.716,0,0,1,0-1.43h.913a.716.716,0,0,1,0,1.43Z" transform="translate(101.203 120.672)"/><path class="b" d="M150.784,33.588h-2.74a.715.715,0,0,1,0-1.429h2.741a.715.715,0,0,1,0,1.429Z" transform="translate(100.903 120.432)"/></g></svg>