<svg xmlns="http://www.w3.org/2000/svg" width="32.539" height="32.539" viewBox="0 0 32.539 32.539">
  <path id="减去_12" data-name="减去 12" d="M16.27,32.539A16.27,16.27,0,0,1,4.765,4.765,16.27,16.27,0,0,1,27.774,27.774,16.163,16.163,0,0,1,16.27,32.539Zm-3.334-9.417h0a3.6,3.6,0,0,0,7.025,0h2.694c1.276,0,1.955,0,2.271,0a.773.773,0,0,0,.395-1.44c-1.225-.72-1.887-2.432-2.227-3.742a15.73,15.73,0,0,1-.455-2.847,6.214,6.214,0,0,0-4.024-5.805.781.781,0,0,0,.014-.145,2.181,2.181,0,1,0-4.362,0,.755.755,0,0,0,.011.135,6.22,6.22,0,0,0-4.048,5.816A15.34,15.34,0,0,1,9.8,17.916c-.333,1.318-.989,3.042-2.22,3.764a.773.773,0,0,0,.386,1.44c.387,0,1.318,0,2.5,0l2.292,0Zm3.514,1.271a2.047,2.047,0,0,1-1.9-1.271h1.912l1.885,0A2.046,2.046,0,0,1,16.45,24.393ZM9.885,21.578h0a6.849,6.849,0,0,0,.427-.69,11.043,11.043,0,0,0,.983-2.594,17.017,17.017,0,0,0,.479-3.137.323.323,0,0,0,0-.05V15.09a4.658,4.658,0,0,1,9.316,0v.017c0,.018,0,.035,0,.053a16.867,16.867,0,0,0,.495,3.134,11,11,0,0,0,.994,2.592,7.168,7.168,0,0,0,.428.68H19.356a.592.592,0,0,0-.081,0,.622.622,0,0,0-.083,0H13.743a.806.806,0,0,0-.119-.009.837.837,0,0,0-.121.009ZM17.046,8.924h0c-.2-.019-.406-.029-.608-.029s-.393.009-.584.026a.636.636,0,0,1,1.193,0Z"/>
</svg>
