<svg xmlns="http://www.w3.org/2000/svg" width="32.545" height="32.545" viewBox="0 0 32.545 32.545">
  <path id="个人_5_" data-name="个人 (5)" d="M81.563,65.29A16.272,16.272,0,1,0,97.835,81.562,16.273,16.273,0,0,0,81.563,65.29Zm0,11.013v0Zm.006,10.315a.439.439,0,0,0-.012.077.286.286,0,0,1,.012-.077Zm8.6,4.906-.154-.013a1.024,1.024,0,0,1-.8-.847,8.124,8.124,0,0,0-2.267-4.505,7.406,7.406,0,0,0-10.764,0,8.156,8.156,0,0,0-2.266,4.506,1.008,1.008,0,0,1-.79.843l-.161.015-.117-.005a1.02,1.02,0,0,1-.89-1.14,9.6,9.6,0,0,1,.9-2.968c.09-.183.185-.363.285-.539a10.153,10.153,0,0,1,1.6-2.048c.138-.133.278-.263.422-.39a9.772,9.772,0,0,1,2.652-1.667,6.4,6.4,0,0,1-.642-.559,6.213,6.213,0,0,1,4.3-10.607h.159a6.214,6.214,0,0,1,4.3,10.605,6.322,6.322,0,0,1-.643.559,9.767,9.767,0,0,1,2.654,1.669c.143.125.28.255.418.386a9.934,9.934,0,0,1,1.6,2.046c.1.184.2.363.29.548a9.616,9.616,0,0,1,.9,2.964,1,1,0,0,1-.193.746,1.008,1.008,0,0,1-.672.4l-.131.007ZM81.495,81.09a.318.318,0,0,1,.121-.022h.015a.642.642,0,0,0-.136.022Zm.068-4.79h0Zm4.506,2.574a.5.5,0,0,1,.019-.064,4.328,4.328,0,0,0,.121-1,4.376,4.376,0,0,0-.121-1.009c-.008-.024-.013-.045-.019-.067a4.8,4.8,0,0,0-4.495-3.582h-.024a4.8,4.8,0,0,0-4.495,3.582c0,.023-.012.045-.016.067a4.238,4.238,0,0,0-.122,1.009,4.192,4.192,0,0,0,.122,1c0,.021.011.043.016.064a4.685,4.685,0,0,0,4.461,3.415h.092a4.691,4.691,0,0,0,4.46-3.415ZM81.495,81.09a.432.432,0,0,1,.136-.022h-.015a.447.447,0,0,0-.121.022Zm0,0" transform="translate(-65.291 -65.29)"/>
</svg>
